REM DIRINDEX 1\2\6,1\2\7,1\2\8,1\2\9,1\3\10,1\3\11,1\4\12,1\4\13,1\4\14,1\5\15,1\5\16,1\5\17
REM DIRNAME cjc029,folder01,folder02,folder03,folder04,folder05,folder06,folder07,folder08,folder09,folder10,folder11,folder12,folder13,folder14,folder15,folder16
TITLE ""
FILE "1400_2_sec08_0752_0768.mp3" MP3
  TRACK 01 AUDIO
    TITLE "0:"
    INDEX 01 00:00:00
  TRACK 02 AUDIO
    TITLE "13:cjc029_3101"
    INDEX 01 00:00:19
  TRACK 03 AUDIO
    TITLE "0:"
    INDEX 01 00:01:46
  TRACK 04 AUDIO
    TITLE "14:cjc029_3102"
    INDEX 01 00:01:52
  TRACK 05 AUDIO
    TITLE "0:"
    INDEX 01 00:03:66
  TRACK 06 AUDIO
    TITLE "13:cjc029_3103"
    INDEX 01 00:04:52
  TRACK 07 AUDIO
    TITLE "0:"
    INDEX 01 00:06:02
  TRACK 08 AUDIO
    TITLE "14:cjc029_3104"
    INDEX 01 00:06:06
  TRACK 09 AUDIO
    TITLE "0:"
    INDEX 01 00:07:11
  TRACK 10 AUDIO
    TITLE "13:cjc029_3105"
    INDEX 01 00:07:68
  TRACK 11 AUDIO
    TITLE "0:"
    INDEX 01 00:09:26
  TRACK 12 AUDIO
    TITLE "14:cjc029_3106"
    INDEX 01 00:09:32
  TRACK 13 AUDIO
    TITLE "0:"
    INDEX 01 00:11:68
  TRACK 14 AUDIO
    TITLE "13:cjc029_3107"
    INDEX 01 00:12:60
  TRACK 15 AUDIO
    TITLE "0:"
    INDEX 01 00:13:61
  TRACK 16 AUDIO
    TITLE "14:cjc029_3108"
    INDEX 01 00:13:69
  TRACK 17 AUDIO
    TITLE "0:"
    INDEX 01 00:16:71
  TRACK 18 AUDIO
    TITLE "13:cjc029_3109"
    INDEX 01 00:17:49
  TRACK 19 AUDIO
    TITLE "0:"
    INDEX 01 00:18:62
  TRACK 20 AUDIO
    TITLE "14:cjc029_3110"
    INDEX 01 00:18:66
  TRACK 21 AUDIO
    TITLE "0:"
    INDEX 01 00:23:12
  TRACK 22 AUDIO
    TITLE "13:cjc029_3111"
    INDEX 01 00:23:67
  TRACK 23 AUDIO
    TITLE "0:"
    INDEX 01 00:25:03
  TRACK 24 AUDIO
    TITLE "14:cjc029_3112"
    INDEX 01 00:25:07
  TRACK 25 AUDIO
    TITLE "0:"
    INDEX 01 00:25:74
  TRACK 26 AUDIO
    TITLE "13:cjc029_3113"
    INDEX 01 00:26:60
  TRACK 27 AUDIO
    TITLE "0:"
    INDEX 01 00:27:71
  TRACK 28 AUDIO
    TITLE "14:cjc029_3114"
    INDEX 01 00:28:00
  TRACK 29 AUDIO
    TITLE "0:"
    INDEX 01 00:29:11
  TRACK 30 AUDIO
    TITLE "13:cjc029_3115"
    INDEX 01 00:29:70
  TRACK 31 AUDIO
    TITLE "0:"
    INDEX 01 00:31:10
  TRACK 32 AUDIO
    TITLE "14:cjc029_3116"
    INDEX 01 00:31:14
  TRACK 33 AUDIO
    TITLE "0:"
    INDEX 01 00:33:38
  TRACK 34 AUDIO
    TITLE "13:cjc029_3117"
    INDEX 01 00:34:24
  TRACK 35 AUDIO
    TITLE "0:"
    INDEX 01 00:35:66
  TRACK 36 AUDIO
    TITLE "14:cjc029_3118"
    INDEX 01 00:35:72
  TRACK 37 AUDIO
    TITLE "0:"
    INDEX 01 00:38:30
  TRACK 38 AUDIO
    TITLE "13:cjc029_3119"
    INDEX 01 00:39:09
  TRACK 39 AUDIO
    TITLE "0:"
    INDEX 01 00:40:28
  TRACK 40 AUDIO
    TITLE "14:cjc029_3120"
    INDEX 01 00:40:34
  TRACK 41 AUDIO
    TITLE "0:"
    INDEX 01 00:43:64
  TRACK 42 AUDIO
    TITLE "13:cjc029_3121"
    INDEX 01 00:44:48
  TRACK 43 AUDIO
    TITLE "0:"
    INDEX 01 00:45:59
  TRACK 44 AUDIO
    TITLE "14:cjc029_3122"
    INDEX 01 00:45:65
  TRACK 45 AUDIO
    TITLE "0:"
    INDEX 01 00:48:32
  TRACK 46 AUDIO
    TITLE "13:cjc029_3123"
    INDEX 01 00:49:18
  TRACK 47 AUDIO
    TITLE "0:"
    INDEX 01 00:50:29
  TRACK 48 AUDIO
    TITLE "14:cjc029_3124"
    INDEX 01 00:50:33
  TRACK 49 AUDIO
    TITLE "0:"
    INDEX 01 00:51:32
  TRACK 50 AUDIO
    TITLE "13:cjc029_3125"
    INDEX 01 00:52:14
  TRACK 51 AUDIO
    TITLE "0:"
    INDEX 01 00:53:35
  TRACK 52 AUDIO
    TITLE "14:cjc029_3126"
    INDEX 01 00:53:41
  TRACK 53 AUDIO
    TITLE "0:"
    INDEX 01 00:57:25
  TRACK 54 AUDIO
    TITLE "13:cjc029_3127"
    INDEX 01 00:58:11
  TRACK 55 AUDIO
    TITLE "0:"
    INDEX 01 00:58:69
  TRACK 56 AUDIO
    TITLE "14:cjc029_3128"
    INDEX 01 00:59:14
  TRACK 57 AUDIO
    TITLE "0:"
    INDEX 01 01:01:44
  TRACK 58 AUDIO
    TITLE "13:cjc029_3129"
    INDEX 01 01:02:30
  TRACK 59 AUDIO
    TITLE "0:"
    INDEX 01 01:03:65
  TRACK 60 AUDIO
    TITLE "14:cjc029_3130"
    INDEX 01 01:03:69
  TRACK 61 AUDIO
    TITLE "0:"
    INDEX 01 01:06:34
  TRACK 62 AUDIO
    TITLE "13:cjc029_3131"
    INDEX 01 01:07:17
  TRACK 63 AUDIO
    TITLE "0:"
    INDEX 01 01:08:46
  TRACK 64 AUDIO
    TITLE "14:cjc029_3132"
    INDEX 01 01:08:50
  TRACK 65 AUDIO
    TITLE "0:"
    INDEX 01 01:09:69
  TRACK 66 AUDIO
    TITLE "13:cjc029_3133"
    INDEX 01 01:10:49
  TRACK 67 AUDIO
    TITLE "0:"
    INDEX 01 01:11:54
  TRACK 68 AUDIO
    TITLE "14:cjc029_3134"
    INDEX 01 01:11:60
  TRACK 69 AUDIO
    TITLE "0:"
    INDEX 01 01:15:05
